<mxfile host="app.diagrams.net" modified="2021-03-27T14:30:42.067Z" agent="5.0 (Windows NT 10.0; Win64; x64) AppleWebKit/537.36 (KHTML, like Gecko) Chrome/89.0.4389.90 Safari/537.36" etag="rZOK-tuABxMcNPPIdKZ8" version="14.5.0" type="github">
  <diagram id="hWVf4hIPu8V6dNiuulAK" name="Page-1">
    <mxGraphModel dx="812" dy="490" grid="1" gridSize="10" guides="1" tooltips="1" connect="1" arrows="1" fold="1" page="1" pageScale="1" pageWidth="827" pageHeight="1169" math="0" shadow="0">
      <root>
        <mxCell id="0" />
        <mxCell id="1" parent="0" />
        <mxCell id="79g6Na89mKjPwtNH28KI-1" value="getTicker()" style="edgeStyle=orthogonalEdgeStyle;rounded=0;orthogonalLoop=1;jettySize=auto;html=1;" edge="1" parent="1" source="79g6Na89mKjPwtNH28KI-4" target="79g6Na89mKjPwtNH28KI-8">
          <mxGeometry x="0.0638" y="10" relative="1" as="geometry">
            <Array as="points">
              <mxPoint x="260" y="200" />
              <mxPoint x="260" y="200" />
            </Array>
            <mxPoint as="offset" />
          </mxGeometry>
        </mxCell>
        <mxCell id="79g6Na89mKjPwtNH28KI-2" value="getQuote()" style="edgeStyle=orthogonalEdgeStyle;rounded=0;orthogonalLoop=1;jettySize=auto;html=1;exitX=1;exitY=0.75;exitDx=0;exitDy=0;entryX=0;entryY=0.75;entryDx=0;entryDy=0;" edge="1" parent="1" source="79g6Na89mKjPwtNH28KI-4" target="79g6Na89mKjPwtNH28KI-10">
          <mxGeometry x="-0.3947" y="-10" relative="1" as="geometry">
            <Array as="points">
              <mxPoint x="240" y="225" />
              <mxPoint x="240" y="260" />
              <mxPoint x="460" y="260" />
              <mxPoint x="460" y="225" />
            </Array>
            <mxPoint as="offset" />
          </mxGeometry>
        </mxCell>
        <mxCell id="79g6Na89mKjPwtNH28KI-3" value="getQuote()" style="edgeStyle=orthogonalEdgeStyle;rounded=0;orthogonalLoop=1;jettySize=auto;html=1;exitX=0.75;exitY=1;exitDx=0;exitDy=0;entryX=0;entryY=0.25;entryDx=0;entryDy=0;" edge="1" parent="1" source="79g6Na89mKjPwtNH28KI-4" target="79g6Na89mKjPwtNH28KI-13">
          <mxGeometry x="0.5412" y="15" relative="1" as="geometry">
            <mxPoint as="offset" />
          </mxGeometry>
        </mxCell>
        <mxCell id="79g6Na89mKjPwtNH28KI-4" value="streaming" style="rounded=1;whiteSpace=wrap;html=1;" vertex="1" parent="1">
          <mxGeometry x="80" y="180" width="120" height="60" as="geometry" />
        </mxCell>
        <mxCell id="79g6Na89mKjPwtNH28KI-5" value="getTicker()" style="edgeStyle=orthogonalEdgeStyle;rounded=0;orthogonalLoop=1;jettySize=auto;html=1;exitX=1.007;exitY=0.346;exitDx=0;exitDy=0;exitPerimeter=0;" edge="1" parent="1" source="79g6Na89mKjPwtNH28KI-8">
          <mxGeometry x="-0.0024" y="10" relative="1" as="geometry">
            <mxPoint x="510" y="200" as="targetPoint" />
            <Array as="points">
              <mxPoint x="500" y="201" />
              <mxPoint x="500" y="200" />
            </Array>
            <mxPoint as="offset" />
          </mxGeometry>
        </mxCell>
        <mxCell id="79g6Na89mKjPwtNH28KI-6" value="buy()" style="edgeStyle=orthogonalEdgeStyle;rounded=0;orthogonalLoop=1;jettySize=auto;html=1;exitX=0.378;exitY=0.997;exitDx=0;exitDy=0;entryX=0.389;entryY=0.008;entryDx=0;entryDy=0;entryPerimeter=0;exitPerimeter=0;" edge="1" parent="1" source="79g6Na89mKjPwtNH28KI-8" target="79g6Na89mKjPwtNH28KI-13">
          <mxGeometry x="0.5708" relative="1" as="geometry">
            <Array as="points">
              <mxPoint x="341" y="240" />
            </Array>
            <mxPoint as="offset" />
          </mxGeometry>
        </mxCell>
        <mxCell id="79g6Na89mKjPwtNH28KI-7" value="sell()" style="edgeStyle=orthogonalEdgeStyle;rounded=0;orthogonalLoop=1;jettySize=auto;html=1;exitX=0.633;exitY=1.042;exitDx=0;exitDy=0;entryX=0.639;entryY=-0.014;entryDx=0;entryDy=0;entryPerimeter=0;exitPerimeter=0;" edge="1" parent="1" source="79g6Na89mKjPwtNH28KI-8" target="79g6Na89mKjPwtNH28KI-13">
          <mxGeometry x="0.5905" relative="1" as="geometry">
            <Array as="points">
              <mxPoint x="370" y="240" />
              <mxPoint x="371" y="240" />
            </Array>
            <mxPoint as="offset" />
          </mxGeometry>
        </mxCell>
        <mxCell id="79g6Na89mKjPwtNH28KI-8" value="TickerBot" style="rounded=1;whiteSpace=wrap;html=1;" vertex="1" parent="1">
          <mxGeometry x="294" y="180" width="120" height="60" as="geometry" />
        </mxCell>
        <mxCell id="79g6Na89mKjPwtNH28KI-9" value="monitorTicker(interval=2000)" style="edgeStyle=orthogonalEdgeStyle;rounded=0;orthogonalLoop=1;jettySize=auto;html=1;exitX=0;exitY=0;exitDx=0;exitDy=0;entryX=1;entryY=0;entryDx=0;entryDy=0;" edge="1" parent="1" source="79g6Na89mKjPwtNH28KI-8" target="79g6Na89mKjPwtNH28KI-8">
          <mxGeometry x="-0.0005" y="10" relative="1" as="geometry">
            <Array as="points">
              <mxPoint x="280" y="180" />
              <mxPoint x="280" y="160" />
              <mxPoint x="434" y="160" />
              <mxPoint x="434" y="180" />
            </Array>
            <mxPoint as="offset" />
          </mxGeometry>
        </mxCell>
        <mxCell id="79g6Na89mKjPwtNH28KI-10" value="Ticker" style="rounded=1;whiteSpace=wrap;html=1;" vertex="1" parent="1">
          <mxGeometry x="510" y="180" width="120" height="60" as="geometry" />
        </mxCell>
        <mxCell id="79g6Na89mKjPwtNH28KI-11" value="&lt;div&gt;&lt;span&gt;- retrieve raw ticker&amp;nbsp;&lt;/span&gt;&lt;/div&gt;&lt;div&gt;&lt;span&gt;- store ticker&amp;nbsp;&lt;/span&gt;&lt;/div&gt;&lt;div&gt;&lt;span&gt;- ticker logic&lt;/span&gt;&lt;/div&gt;&lt;div&gt;&lt;span&gt;- emit some signal about ticker&amp;nbsp;&lt;/span&gt;&lt;/div&gt;" style="text;html=1;strokeColor=none;fillColor=none;align=left;verticalAlign=top;whiteSpace=wrap;rounded=0;" vertex="1" parent="1">
          <mxGeometry x="500" y="250" width="140" height="110" as="geometry" />
        </mxCell>
        <mxCell id="79g6Na89mKjPwtNH28KI-12" value="monitorPrice()&lt;br&gt;&lt;div style=&quot;text-align: left&quot;&gt;stoploss()&lt;/div&gt;" style="edgeStyle=orthogonalEdgeStyle;rounded=0;orthogonalLoop=1;jettySize=auto;html=1;exitX=0;exitY=0.5;exitDx=0;exitDy=0;" edge="1" parent="1">
          <mxGeometry x="0.4284" y="-20" relative="1" as="geometry">
            <mxPoint x="290" y="430" as="targetPoint" />
            <mxPoint x="295" y="410" as="sourcePoint" />
            <Array as="points">
              <mxPoint x="180" y="410" />
              <mxPoint x="180" y="430" />
            </Array>
            <mxPoint as="offset" />
          </mxGeometry>
        </mxCell>
        <mxCell id="79g6Na89mKjPwtNH28KI-13" value="Portfolio" style="rounded=1;whiteSpace=wrap;html=1;" vertex="1" parent="1">
          <mxGeometry x="294" y="380" width="120" height="60" as="geometry" />
        </mxCell>
      </root>
    </mxGraphModel>
  </diagram>
</mxfile>
